<svg xmlns="http://www.w3.org/2000/svg" xmlns:xlink="http://www.w3.org/1999/xlink" viewBox="0 0 76.15 70.15" fill="#fff" fill-rule="evenodd" stroke="#000" stroke-linecap="round" stroke-linejoin="round"><use xlink:href="#A" x=".075" y=".075"/><symbol id="A" overflow="visible"><path d="M36.092.619h6.42v68.176h-6.42zm-20.207 10.62a5.62 5.62 0 0 0 5.621-5.621A5.62 5.62 0 0 0 15.885 0a5.62 5.62 0 0 0-5.618 5.618 5.62 5.62 0 0 0 5.618 5.621zm-.83 35.626l.003 19.658c0 3.535-5.297 3.535-5.297 0l-.003-19.658H2.734l7.513-26.062H9.067L4.643 35.691C3.59 38.939-.869 37.605.15 34.129l4.915-16.176c.527-1.844 2.86-5.115 6.896-5.115h3.724 0 4.005c4.003 0 6.347 3.299 6.953 5.115l4.915 16.159c.982 3.476-3.44 4.915-4.495 1.528L22.64 20.804h-1.278l7.594 26.062h-7.054v19.684c0 3.51-5.278 3.493-5.278 0V46.866h-1.571zm40.932-34.047c-3.955 0-7.135 3.271-7.135 7.349v17.39c0 3.38 4.878 3.38 4.878 0V21.657h1.154V65.71c0 4.52 6.497 4.388 6.497 0V39.919h1.117V65.71c0 4.388 6.533 4.52 6.533 0V21.657h1.126v15.901c0 3.406 4.853 3.406 4.844 0V20.272c0-3.761-2.88-7.445-7.223-7.445l-11.791-.009zm5.925-1.579a5.62 5.62 0 0 0 5.621-5.621A5.62 5.62 0 0 0 61.911 0a5.62 5.62 0 0 0 0 11.239z" stroke="none" fill="#007198" fill-rule="nonzero"/></symbol></svg>